<?xml version="1.0" encoding="UTF-8"?>
<svg version="1.1" xmlns="http://www.w3.org/2000/svg" width="98" height="98">
<path d="M0 0 C1.61551758 -0.02416992 1.61551758 -0.02416992 3.26367188 -0.04882812 C15.79584791 -0.05641878 26.14946672 3.41463939 35.52734375 11.99609375 C36.9375 13.5625 36.9375 13.5625 38.6875 16.3125 C38.1925 17.7975 38.1925 17.7975 37.6875 19.3125 C34.625 20.5 34.625 20.5 31.6875 21.3125 C32.265 21.9725 32.8425 22.6325 33.4375 23.3125 C41.4351174 33.97598987 42.57094994 45.21500405 41.6875 58.3125 C39.77606131 69.97388229 32.78359415 79.99638113 23.6875 87.3125 C12.31664948 94.69952062 -1.81616513 98.1178696 -15.2421875 95.80859375 C-23.56340276 93.95590587 -31.75235111 90.91844541 -38.3125 85.3125 C-38.3125 84.6525 -38.3125 83.9925 -38.3125 83.3125 C-38.89 83.085625 -39.4675 82.85875 -40.0625 82.625 C-46.7173293 78.74301624 -50.08106262 70.75073256 -52.0625 63.625 C-55.42105325 48.6692325 -52.43717476 33.34533605 -44.3125 20.3125 C-38.42213224 11.62730309 -29.07744977 5.8106399 -19.3125 2.3125 C-17.8275 1.77496094 -17.8275 1.77496094 -16.3125 1.2265625 C-10.97925724 -0.25247593 -5.49207418 -0.01625836 0 0 Z " fill="#C3C3C3" transform="translate(54.3125,0.6875)"/>
<path d="M0 0 C1.61551758 -0.02416992 1.61551758 -0.02416992 3.26367188 -0.04882812 C15.79584791 -0.05641878 26.14946672 3.41463939 35.52734375 11.99609375 C36.9375 13.5625 36.9375 13.5625 38.6875 16.3125 C37.6875 19.3125 37.6875 19.3125 35.6875 20.3125 C31.55255462 20.54382562 28.30682697 20.04155156 24.375 18.8125 C12.8545594 15.82147877 -0.6317257 15.52768773 -11.3125 21.3125 C-14.71615668 23.71036954 -17.81508346 26.39027494 -20.9140625 29.16796875 C-24.20499535 32.11051294 -26.12300162 32.48780143 -30.4375 32.875 C-31.34757812 32.95878906 -32.25765625 33.04257812 -33.1953125 33.12890625 C-33.89398438 33.18949219 -34.59265625 33.25007813 -35.3125 33.3125 C-37.06413456 37.08472089 -37.53740027 39.979139 -37.4375 44.125 C-37.41042969 45.58873047 -37.41042969 45.58873047 -37.3828125 47.08203125 C-37.35960937 47.81808594 -37.33640625 48.55414063 -37.3125 49.3125 C-35.9925 49.6425 -34.6725 49.9725 -33.3125 50.3125 C-33.27511719 51.53066406 -33.23773438 52.74882813 -33.19921875 54.00390625 C-33.13351883 55.6276329 -33.06707291 57.25132949 -33 58.875 C-32.97744141 59.67486328 -32.95488281 60.47472656 -32.93164062 61.29882812 C-32.54081431 70.00359607 -29.43981319 77.0135164 -23.3125 83.3125 C-16.89875357 87.82216546 -10.2750735 90.4614084 -2.3125 89.3125 C0.40459187 87.68907725 0.40459187 87.68907725 2.6875 85.3125 C4.1725 84.260625 4.1725 84.260625 5.6875 83.1875 C9.08245543 80.35692335 10.62455776 76.91022715 12.4609375 72.953125 C13.67260881 70.34455875 14.98599609 67.83057726 16.375 65.3125 C16.77074219 64.590625 17.16648437 63.86875 17.57421875 63.125 C18.6875 61.3125 18.6875 61.3125 20.6875 59.3125 C21.6775 59.3125 22.6675 59.3125 23.6875 59.3125 C22.97297412 64.07600585 21.89215156 68.65451396 20.6875 73.3125 C22.0075 72.9825 23.3275 72.6525 24.6875 72.3125 C24.46587503 77.74231172 23.27793366 80.638839 19.5625 84.61328125 C11.09356579 92.28825288 1.93706856 96.68034341 -9.50390625 96.52734375 C-19.76581188 95.74235792 -30.41357968 92.06248646 -38.3125 85.3125 C-38.3125 84.6525 -38.3125 83.9925 -38.3125 83.3125 C-38.89 83.085625 -39.4675 82.85875 -40.0625 82.625 C-46.7173293 78.74301624 -50.08106262 70.75073256 -52.0625 63.625 C-55.42105325 48.6692325 -52.43717476 33.34533605 -44.3125 20.3125 C-38.42213224 11.62730309 -29.07744977 5.8106399 -19.3125 2.3125 C-17.8275 1.77496094 -17.8275 1.77496094 -16.3125 1.2265625 C-10.97925724 -0.25247593 -5.49207418 -0.01625836 0 0 Z " fill="#121212" transform="translate(54.3125,0.6875)"/>
<path d="M0 0 C1.61551758 -0.02416992 1.61551758 -0.02416992 3.26367188 -0.04882812 C15.79584791 -0.05641878 26.14946672 3.41463939 35.52734375 11.99609375 C36.9375 13.5625 36.9375 13.5625 38.6875 16.3125 C37.6875 19.3125 37.6875 19.3125 35.6875 20.3125 C31.55255462 20.54382562 28.30682697 20.04155156 24.375 18.8125 C12.8545594 15.82147877 -0.6317257 15.52768773 -11.3125 21.3125 C-14.71615668 23.71036954 -17.81508346 26.39027494 -20.9140625 29.16796875 C-24.35246729 32.24237303 -26.41072431 32.50654151 -30.9375 32.875 C-31.94039062 32.95878906 -32.94328125 33.04257812 -33.9765625 33.12890625 C-34.74742188 33.18949219 -35.51828125 33.25007813 -36.3125 33.3125 C-35.3225 29.8475 -35.3225 29.8475 -34.3125 26.3125 C-33.6525 26.3125 -32.9925 26.3125 -32.3125 26.3125 C-32.20421875 25.71566406 -32.0959375 25.11882813 -31.984375 24.50390625 C-30.35459983 19.18818606 -24.95531092 15.87826393 -20.3125 13.3125 C-18.96618175 12.33005155 -17.62808703 11.33573436 -16.3125 10.3125 C-16.6425 9.6525 -16.9725 8.9925 -17.3125 8.3125 C-17.03307545 6.63595271 -16.70421753 4.96641846 -16.3125 3.3125 C-17.3025 2.9825 -18.2925 2.6525 -19.3125 2.3125 C-12.88399365 0.00412361 -6.78488792 -0.02008552 0 0 Z " fill="#707070" transform="translate(54.3125,0.6875)"/>
<path d="M0 0 C0.33 -0.66 0.66 -1.32 1 -2 C1.66 -0.35 2.32 1.3 3 3 C-0.51204214 5.34136143 -1.87070978 5.28725497 -6 5 C-7.78465653 4.55183513 -9.55623705 4.04899102 -11.3125 3.5 C-24.2200382 0.14885033 -37.61800289 0.76070291 -49.40625 7.34375 C-50.75024409 8.18131154 -52.07828348 9.04577541 -53.37890625 9.94921875 C-55 11 -55 11 -58 12 C-58.42717773 6.61756057 -56.59773168 4.11302279 -53.21484375 0.09375 C-39.44567825 -12.92260398 -15.46292323 -5.23710476 0 0 Z " fill="#242424" transform="translate(90,16)"/>
<path d="M0 0 C-0.66 0.66 -1.32 1.32 -2 2 C-0.68 2.66 0.64 3.32 2 4 C1.50371094 4.3403125 1.00742187 4.680625 0.49609375 5.03125 C-4.1551745 8.34980192 -7.89760405 11.87712487 -11.5546875 16.265625 C-13 18 -13 18 -15 20 C-15.33 19.67 -15.66 19.34 -16 19 C-16.66 19.66 -17.32 20.32 -18 21 C-19.97935624 22.69219575 -21.99220782 24.34138907 -24 26 C-23.83423117 19.53501551 -19.99651306 15.69564198 -16 11 C-17.1446875 11.495 -17.1446875 11.495 -18.3125 12 C-21 13 -21 13 -24 13 C-21.46141116 6.32336461 -13.2236302 2.9064462 -7.0625 0 C-4.07971701 -0.97396996 -2.83507734 -1.24743403 0 0 Z " fill="#B0B0B0" transform="translate(52,29)"/>
<path d="M0 0 C0 0.66 0 1.32 0 2 C0.99 2.33 1.98 2.66 3 3 C1.80375 3.33 0.6075 3.66 -0.625 4 C-5.7628129 5.91641334 -8.37346523 9.29603181 -11 14 C-11.93602676 16.80080534 -11.93602676 16.80080534 -12 19 C-10.35 17.68 -8.7 16.36 -7 15 C-6.34 15.33 -5.68 15.66 -5 16 C-6.28935919 17.14842923 -7.58156579 18.29366227 -8.875 19.4375 C-9.59429687 20.07558594 -10.31359375 20.71367187 -11.0546875 21.37109375 C-14.23722309 24.03598801 -16.54176455 24.23014363 -20.625 24.5625 C-22.12933594 24.68818359 -22.12933594 24.68818359 -23.6640625 24.81640625 C-24.43492188 24.87699219 -25.20578125 24.93757813 -26 25 C-25.01 21.535 -25.01 21.535 -24 18 C-23.34 18 -22.68 18 -22 18 C-21.89171875 17.40316406 -21.7834375 16.80632813 -21.671875 16.19140625 C-20.02460662 10.81862972 -14.6323469 7.66359947 -10 5 C-8.96880261 4.11611652 -7.94840231 3.21952513 -6.9375 2.3125 C-4 0 -4 0 0 0 Z " fill="#6B6B6B" transform="translate(44,9)"/>
<path d="M0 0 C0.55816406 0.23847656 1.11632812 0.47695312 1.69140625 0.72265625 C-2.15099717 4.14427774 -5.87773438 7.08809122 -10.30859375 9.72265625 C-12.98879767 12.10505974 -14.16396983 13.28878448 -15.30859375 16.72265625 C-15.96859375 16.72265625 -16.62859375 16.72265625 -17.30859375 16.72265625 C-17.43234375 17.40328125 -17.55609375 18.08390625 -17.68359375 18.78515625 C-18.30859375 21.72265625 -18.30859375 21.72265625 -19.37109375 24.84765625 C-20.58440402 29.86267204 -20.47563928 34.59064632 -20.30859375 39.72265625 C-18.98859375 40.05265625 -17.66859375 40.38265625 -16.30859375 40.72265625 C-16.21771484 42.58470703 -16.21771484 42.58470703 -16.125 44.484375 C-16.04055752 46.12631202 -15.95591139 47.76823857 -15.87109375 49.41015625 C-15.83177734 50.22677734 -15.79246094 51.04339844 -15.75195312 51.88476562 C-15.53961372 55.91921436 -15.26411453 59.78012934 -14.30859375 63.72265625 C-17.1370806 61.26633873 -18.42741297 58.69023365 -19.93359375 55.28515625 C-20.35898437 54.33769531 -20.784375 53.39023437 -21.22265625 52.4140625 C-24.87799953 43.3545966 -25.00260812 31.21399143 -22.14453125 21.94921875 C-20.70956096 19.02776641 -19.16885768 16.39037286 -17.30859375 13.72265625 C-16.56609375 12.65015625 -15.82359375 11.57765625 -15.05859375 10.47265625 C-4.09409224 -0.49184526 -4.09409224 -0.49184526 0 0 Z " fill="#343434" transform="translate(37.30859375,10.27734375)"/>
<path d="M0 0 C3.49618092 0.37080707 6.16747673 2.13208654 9.125 3.9375 C9.99382812 4.46214844 10.86265625 4.98679687 11.7578125 5.52734375 C14 7 14 7 16 9 C16 9.99 16 10.98 16 12 C6.18877881 10.23076339 -3.37997353 7.58772786 -13 5 C-10.25289295 3.49937765 -8.5747597 2.94134616 -5.375 2.5 C-1.93577375 2.33300503 -1.93577375 2.33300503 0 0 Z " fill="#C3C3C3" transform="translate(74,4)"/>
<path d="M0 0 C2.375 -0.1875 2.375 -0.1875 5 0 C5.66 0.99 6.32 1.98 7 3 C8.65 2.67 10.3 2.34 12 2 C11.69230293 3.81332154 11.37870936 5.62564345 11.0625 7.4375 C10.88847656 8.44683594 10.71445312 9.45617187 10.53515625 10.49609375 C10 13 10 13 9 14 C8.60333773 16.18019479 8.25684763 18.3696463 7.9375 20.5625 C7.76089844 21.76003906 7.58429687 22.95757812 7.40234375 24.19140625 C7.26957031 25.11824219 7.13679688 26.04507813 7 27 C4.60815594 23.41223391 3.87245567 20.98375055 3.90234375 16.76953125 C3.90556641 15.96708984 3.90878906 15.16464844 3.91210938 14.33789062 C3.92048828 13.50451172 3.92886719 12.67113281 3.9375 11.8125 C3.94201172 10.96751953 3.94652344 10.12253906 3.95117188 9.25195312 C3.96294597 7.16793845 3.9808811 5.08396023 4 3 C2.68 2.67 1.36 2.34 0 2 C0 1.34 0 0.68 0 0 Z " fill="#B7B7B7" transform="translate(17,48)"/>
<path d="M0 0 C-0.99 2.97 -1.98 5.94 -3 9 C-1.02 8.67 0.96 8.34 3 8 C1.84826645 10.46800047 0.95216435 12.04783565 -1 14 C-3.125 13.625 -3.125 13.625 -5 13 C-5 12.01 -5 11.02 -5 10 C-6.98 10 -8.96 10 -11 10 C-10.67 7.03 -10.34 4.06 -10 1 C-2.25 -1.125 -2.25 -1.125 0 0 Z " fill="#EFEFEF" transform="translate(28,36)"/>
<path d="M0 0 C1.80511427 3.61022853 0.83489659 7.97133832 0.64453125 11.93359375 C0.82048828 13.45146484 0.82048828 13.45146484 1 15 C2.33048255 16.0037898 3.66389148 17.00371099 5 18 C5.5390625 21.109375 5.5390625 21.109375 5.625 24.75 C5.84262891 29.87754933 6.2781188 34.17873264 8 39 C5.17151315 36.54368248 3.88118078 33.9675774 2.375 30.5625 C1.73691406 29.14130859 1.73691406 29.14130859 1.0859375 27.69140625 C-0.49407176 23.77548401 -1.12693615 20.49253048 -1.1328125 16.26953125 C-1.13410156 15.38458984 -1.13539062 14.49964844 -1.13671875 13.58789062 C-1.13285156 12.67201172 -1.12898437 11.75613281 -1.125 10.8125 C-1.12886719 9.88501953 -1.13273438 8.95753906 -1.13671875 8.00195312 C-1.13542969 7.12087891 -1.13414063 6.23980469 -1.1328125 5.33203125 C-1.13168457 4.52483643 -1.13055664 3.7176416 -1.12939453 2.88598633 C-1 1 -1 1 0 0 Z " fill="#282828" transform="translate(15,35)"/>
<path d="M0 0 C-0.74443359 0.51046875 -0.74443359 0.51046875 -1.50390625 1.03125 C-6.1551745 4.34980192 -9.89760405 7.87712487 -13.5546875 12.265625 C-15 14 -15 14 -17 16 C-17.33 15.67 -17.66 15.34 -18 15 C-18.66 15.66 -19.32 16.32 -20 17 C-18.8449827 10.99391004 -16.68796666 7.19819989 -11.625 3.75 C-3.23076923 -1.61538462 -3.23076923 -1.61538462 0 0 Z " fill="#6E6E6E" transform="translate(54,33)"/>
<path d="M0 0 C2 3 2 3 2 5 C3.98 5 5.96 5 8 5 C6.6875 6.9375 6.6875 6.9375 4 9 C0.34417489 9.6575225 -3.29108788 9.87210648 -7 10 C-5.64615385 3.47692308 -5.64615385 3.47692308 -2.375 1.0625 C-1.199375 0.5365625 -1.199375 0.5365625 0 0 Z " fill="#838383" transform="translate(25,24)"/>
<path d="M0 0 C3.36939433 0.33693943 5.42910583 1.88819408 8 4 C6.15812985 5.84187015 3.57260639 5.45953854 1.10546875 5.71875 C-1.00433356 5.94560512 -1.00433356 5.94560512 -2.99609375 6.58984375 C-6.53143155 7.3134509 -9.57839918 5.96945357 -13 5 C-10.34702041 3.40821225 -8.50307461 2.93145857 -5.375 2.5 C-1.93577375 2.33300503 -1.93577375 2.33300503 0 0 Z " fill="#B7B7B7" transform="translate(74,4)"/>
<path d="M0 0 C0.33 0 0.66 0 1 0 C1 1.65 1 3.3 1 5 C1.78375 4.525625 2.5675 4.05125 3.375 3.5625 C4.88948678 2.66101977 6.4235897 1.78820515 8 1 C8 2.32 8 3.64 8 5 C9.98 4.67 11.96 4.34 14 4 C12.84826645 6.46800047 11.95216435 8.04783565 10 10 C7.875 9.625 7.875 9.625 6 9 C6 8.01 6 7.02 6 6 C4.02 6 2.04 6 0 6 C0 4.02 0 2.04 0 0 Z " fill="#D9D9D9" transform="translate(17,40)"/>
<path d="M0 0 C-2.58010196 1.48505869 -5.16377559 2.96317311 -7.75 4.4375 C-8.47960938 4.85837891 -9.20921875 5.27925781 -9.9609375 5.71289062 C-10.66992188 6.11572266 -11.37890625 6.51855469 -12.109375 6.93359375 C-12.75874023 7.30540771 -13.40810547 7.67722168 -14.07714844 8.06030273 C-16.03827134 9.0187032 -17.86964435 9.5503043 -20 10 C-18.93978145 6.72494131 -17.86409819 5.91467818 -14.8828125 4.04296875 C-13.63650914 3.41187883 -12.38358641 2.79372339 -11.125 2.1875 C-10.18720703 1.70120117 -10.18720703 1.70120117 -9.23046875 1.20507812 C-5.66895661 -0.55308907 -3.76526045 -1.22270743 0 0 Z " fill="#656566" transform="translate(52,29)"/>
<path d="M0 0 C-0.41421969 4.83256305 -2.46413986 6.82679218 -6 10 C-6.33 9.34 -6.66 8.68 -7 8 C-7.99 8.66 -8.98 9.32 -10 10 C-9.41978222 6.7451198 -8.47352859 5.06347592 -6.125 2.75 C-5.61195312 2.22921875 -5.09890625 1.7084375 -4.5703125 1.171875 C-3 0 -3 0 0 0 Z " fill="#6E6E6E" transform="translate(32,17)"/>
<path d="M0 0 C0.33 0.66 0.66 1.32 1 2 C0.67 2.99 0.34 3.98 0 5 C-0.0685495 6.89470816 -0.08480372 8.7916834 -0.0625 10.6875 C-0.05347656 11.68136719 -0.04445313 12.67523438 -0.03515625 13.69921875 C-0.02355469 14.45847656 -0.01195313 15.21773437 0 16 C1.32 16.33 2.64 16.66 4 17 C4 22.28 4 27.56 4 33 C3.67 33 3.34 33 3 33 C3 28.38 3 23.76 3 19 C1.68 18.34 0.36 17.68 -1 17 C-2.86440575 15.13559425 -2.17374427 12.1175383 -2.1875 9.625 C-2.20167969 8.46226563 -2.21585938 7.29953125 -2.23046875 6.1015625 C-2 3 -2 3 0 0 Z " fill="#626262" transform="translate(17,34)"/>
<path d="M0 0 C0 0.66 0 1.32 0 2 C0.99 2.33 1.98 2.66 3 3 C1.783125 3.37125 0.56625 3.7425 -0.6875 4.125 C-5.25168562 5.80312864 -7.21432996 8.08265151 -10 12 C-10 5 -10 5 -6.6875 1.6875 C-4 0 -4 0 0 0 Z " fill="#5C5C5C" transform="translate(44,9)"/>
<path d="M0 0 C2.5 0.8125 2.5 0.8125 5 3 C5.46346554 6.69681924 5.28328381 10.29212965 5 14 C0.65757571 9.65757571 0.2555331 5.86448454 0 0 Z " fill="#414141" transform="translate(15,50)"/>
<path d="M0 0 C2.64 0 5.28 0 8 0 C7.67 0.99 7.34 1.98 7 3 C4.36 3.33 1.72 3.66 -1 4 C-1.33 7.3 -1.66 10.6 -2 14 C-2.33 14 -2.66 14 -3 14 C-3.29341888 8.32723489 -3.00559652 5.00932754 0 0 Z " fill="#B4B4B4" transform="translate(19,33)"/>
<path d="M0 0 C1.65 0 3.3 0 5 0 C6.20217503 2.40435006 6.03897118 3.68381369 5.87890625 6.3515625 C5.83056641 7.20234375 5.78222656 8.053125 5.73242188 8.9296875 C5.64831055 10.26386719 5.64831055 10.26386719 5.5625 11.625 C5.51029297 12.5221875 5.45808594 13.419375 5.40429688 14.34375 C5.2744565 16.56284012 5.13948661 18.78149871 5 21 C4.67 21 4.34 21 4 21 C4 15.06 4 9.12 4 3 C2.68 2.67 1.36 2.34 0 2 C0 1.34 0 0.68 0 0 Z " fill="#8D8D8D" transform="translate(17,48)"/>
<path d="M0 0 C-0.60334309 3.70503641 -2.22474237 5.85968148 -4.5625 8.75 C-5.52349609 9.94882812 -5.52349609 9.94882812 -6.50390625 11.171875 C-6.99761719 11.77515625 -7.49132812 12.3784375 -8 13 C-8.33 12.01 -8.66 11.02 -9 10 C-4 0 -4 0 0 0 Z " fill="#8F8F8F" transform="translate(37,42)"/>
<path d="M0 0 C0.33 0.99 0.66 1.98 1 3 C2.32 2.67 3.64 2.34 5 2 C4.74438677 4.3431213 4.40729228 6.67843403 4 9 C3.01 9.495 3.01 9.495 2 10 C0.4375 8.9375 0.4375 8.9375 -1 7 C-0.6875 3.3125 -0.6875 3.3125 0 0 Z " fill="#545454" transform="translate(74,71)"/>
<path d="M0 0 C1.29922995 2.5984599 0.81286289 3.75961451 0.1875 6.5625 C0.01605469 7.36816406 -0.15539062 8.17382812 -0.33203125 9.00390625 C-1 11 -1 11 -3 12 C-3.33 10.02 -3.66 8.04 -4 6 C-4.33 6 -4.66 6 -5 6 C-5 4.35 -5 2.7 -5 1 C-3.35 0.67 -1.7 0.34 0 0 Z " fill="#ABABAB" transform="translate(28,50)"/>
<path d="M0 0 C-1.65167557 3.5786304 -3.78286492 6.74820188 -6 10 C-6.66 9.67 -7.32 9.34 -8 9 C-8.66 9.66 -9.32 10.32 -10 11 C-9.49268371 6.60325886 -6.88085945 4.16191891 -4 1 C-2 0 -2 0 0 0 Z " fill="#606060" transform="translate(44,39)"/>
<path d="M0 0 C0.55171875 0.38929687 1.1034375 0.77859375 1.671875 1.1796875 C-0.35008667 3.20164917 -1.58676986 3.85520108 -4.203125 4.8671875 C-4.88117187 5.13917969 -5.55921875 5.41117188 -6.2578125 5.69140625 C-8.63920282 6.25305491 -10.03242691 5.94663596 -12.328125 5.1796875 C-10.75765757 4.11872287 -9.17117983 3.08142515 -7.578125 2.0546875 C-6.69640625 1.47460938 -5.8146875 0.89453125 -4.90625 0.296875 C-2.328125 -0.8203125 -2.328125 -0.8203125 0 0 Z " fill="#A7A7A7" transform="translate(50.328125,30.8203125)"/>
<path d="M0 0 C-0.33 0.99 -0.66 1.98 -1 3 C-5.62 3 -10.24 3 -15 3 C-14.67 2.34 -14.34 1.68 -14 1 C-9.31604754 -0.14242743 -4.78644729 -0.08252495 0 0 Z " fill="#858585" transform="translate(65,7)"/>
<path d="M0 0 C0.99 0.66 1.98 1.32 3 2 C1 4 1 4 -1.05859375 4.046875 C-1.84363281 3.94890625 -2.62867187 3.8509375 -3.4375 3.75 C-4.61119141 3.61851563 -4.61119141 3.61851563 -5.80859375 3.484375 C-8 3 -8 3 -11 1 C-7.31233808 -0.18005182 -3.84889483 -0.20993972 0 0 Z " fill="#ACACAC" transform="translate(72,7)"/>
<path d="M0 0 C-0.5775 0.2475 -1.155 0.495 -1.75 0.75 C-4.10874378 1.92559636 -4.10874378 1.92559636 -6 4 C-7.93122728 5.93122728 -9.51281179 6.9340622 -12 8 C-9.61073151 2.4250402 -6.23702493 -1.87110748 0 0 Z " fill="#3D3D3D" transform="translate(47,13)"/>
<path d="M0 0 C0.33 1.32 0.66 2.64 1 4 C3.64 3.67 6.28 3.34 9 3 C6.41073669 5.58926331 4.97294721 5.37398043 1.375 5.625 C0.37210938 5.69976562 -0.63078125 5.77453125 -1.6640625 5.8515625 C-2.82035156 5.92503906 -2.82035156 5.92503906 -4 6 C-2.25 1.125 -2.25 1.125 0 0 Z " fill="#979797" transform="translate(22,28)"/>
<path d="M0 0 C0.66 0.33 1.32 0.66 2 1 C-1.63 4.63 -5.26 8.26 -9 12 C-9.33 11.34 -9.66 10.68 -10 10 C-6.92118304 6.12948725 -3.99926986 2.97088618 0 0 Z " fill="#292929" transform="translate(21,10)"/>
<path d="M0 0 C0.99 1.485 0.99 1.485 2 3 C3.32 2.34 4.64 1.68 6 1 C5.67 3.31 5.34 5.62 5 8 C4.67 7.01 4.34 6.02 4 5 C2.68 5.33 1.36 5.66 0 6 C0 4.02 0 2.04 0 0 Z " fill="#8D8D8E" transform="translate(75,68)"/>
<path d="M0 0 C-1.15173355 2.46800047 -2.04783565 4.04783565 -4 6 C-4.99 6 -5.98 6 -7 6 C-6.6875 4.125 -6.6875 4.125 -6 2 C-3 0 -3 0 0 0 Z " fill="#E1E1E1" transform="translate(31,44)"/>
<path d="M0 0 C-1.41519715 2.0343459 -2.54982123 2.90410393 -4.98046875 3.421875 C-6.98176954 3.66273952 -8.9909944 3.83532741 -11 4 C-7.70333541 0.70333541 -4.58106555 -1.52702185 0 0 Z " fill="#7A7A7A" transform="translate(69,91)"/>
<path d="M0 0 C-0.99 1.32 -1.98 2.64 -3 4 C-3.33 3.67 -3.66 3.34 -4 3 C-5.99958364 2.95919217 -8.00045254 2.95745644 -10 3 C-10 2.34 -10 1.68 -10 1 C-8.71073008 0.63720544 -7.41846728 0.28503302 -6.125 -0.0625 C-5.40570312 -0.25972656 -4.68640625 -0.45695312 -3.9453125 -0.66015625 C-2 -1 -2 -1 0 0 Z " fill="#DBDBDB" transform="translate(28,36)"/>
<path d="M0 0 C-1.36983503 3.16115776 -1.9890638 3.9927092 -5 6 C-5 5.34 -5 4.68 -5 4 C-5.66 3.67 -6.32 3.34 -7 3 C-4.49955934 -0.00052879 -4.2621484 0 0 0 Z " fill="#D1D1D1" transform="translate(36,40)"/>
<path d="M0 0 C0.33 0.66 0.66 1.32 1 2 C0.34 2 -0.32 2 -1 2 C-1.103125 2.763125 -1.20625 3.52625 -1.3125 4.3125 C-2.04364039 7.17059424 -2.76951913 8.15742885 -5 10 C-4.56802365 5.2482602 -3.67230705 3.07999946 0 0 Z " fill="#424242" transform="translate(21,25)"/>
<path d="M0 0 C2.31 0.66 4.62 1.32 7 2 C7 2.66 7 3.32 7 4 C5.25 4.6875 5.25 4.6875 3 5 C0.75 3.5625 0.75 3.5625 -1 2 C-0.67 1.34 -0.34 0.68 0 0 Z " fill="#0C0C0C" transform="translate(81,16)"/>
<path d="M0 0 C0.66 0.33 1.32 0.66 2 1 C1 4 1 4 -2 6 C-2.99 6 -3.98 6 -5 6 C-3.63016497 2.83884224 -3.0109362 2.0072908 0 0 Z " fill="#717171" transform="translate(37,33)"/>
</svg>
